<svg width="20" height="20" viewBox="0 0 20 20" fill="none" xmlns="http://www.w3.org/2000/svg">
<path d="M17.1834 7.04232C16.3084 3.19232 12.9501 1.45898 10.0001 1.45898C10.0001 1.45898 10.0001 1.45898 9.99175 1.45898C7.05008 1.45898 3.68341 3.18398 2.80841 7.03398C1.83341 11.334 4.46675 14.9757 6.85008 17.2673C7.73341 18.1173 8.86675 18.5423 10.0001 18.5423C11.1334 18.5423 12.2667 18.1173 13.1417 17.2673C15.5251 14.9757 18.1584 11.3423 17.1834 7.04232ZM10.0001 11.2173C8.55008 11.2173 7.37508 10.0423 7.37508 8.59232C7.37508 7.14232 8.55008 5.96732 10.0001 5.96732C11.4501 5.96732 12.6251 7.14232 12.6251 8.59232C12.6251 10.0423 11.4501 11.2173 10.0001 11.2173Z" fill="#4A556C" fill-opacity="0.5"/>
</svg>
