<svg width="20" height="20" viewBox="0 0 20 20" fill="none" xmlns="http://www.w3.org/2000/svg">
<path d="M18.6776 16.6849C18.5164 17.008 18.3194 17.3131 18.0686 17.6002C17.6209 18.0847 17.1373 18.4437 16.5999 18.659C16.0626 18.8923 15.4716 19 14.8448 19C13.9313 19 12.9462 18.7847 11.9253 18.336C10.8865 17.8873 9.86569 17.2951 8.84479 16.5593C7.80599 15.8056 6.8388 14.9621 5.90745 14.0468C4.97611 13.1136 4.15218 12.1266 3.39994 11.1036C2.66561 10.0807 2.0746 9.0578 1.64475 8.03487C1.2149 7.01194 1 6.02492 1 5.09172C1 4.48155 1.10745 3.88933 1.32238 3.35094C1.5373 2.79461 1.87763 2.29213 2.36121 1.84347C2.93435 1.26919 3.56118 1 4.22386 1C4.47461 1 4.72531 1.05383 4.95814 1.16151C5.19098 1.26919 5.40595 1.4307 5.56715 1.664L7.64471 4.60714C7.80591 4.84044 7.9313 5.03786 8.00295 5.23527C8.0925 5.43268 8.12833 5.61213 8.12833 5.7916C8.12833 6.00695 8.05672 6.22233 7.93134 6.43769C7.80597 6.65304 7.64472 6.86837 7.4298 7.08372L6.74919 7.80156C6.64173 7.90923 6.60599 8.01693 6.60599 8.1605C6.60599 8.23229 6.62382 8.30406 6.64173 8.37585C6.67755 8.44763 6.69553 8.50148 6.71344 8.55532C6.87464 8.8604 7.16115 9.23725 7.55518 9.70385C7.96712 10.1704 8.39705 10.655 8.86272 11.1216C9.3463 11.6062 9.81196 12.0368 10.2955 12.4496C10.7612 12.8444 11.1552 13.1137 11.4597 13.2752C11.5134 13.2931 11.5672 13.329 11.6209 13.3469C11.6925 13.3828 11.7642 13.3828 11.8537 13.3828C12.0149 13.3828 12.1224 13.329 12.2299 13.2213L12.9104 12.5394C13.1432 12.3061 13.3582 12.1446 13.5553 12.0369C13.7702 11.9113 13.9672 11.8394 14.2 11.8394C14.3791 11.8394 14.5582 11.8753 14.7552 11.9651C14.9522 12.0548 15.1671 12.1625 15.382 12.324L18.3552 14.4417C18.5881 14.6032 18.7492 14.8006 18.8567 15.0159C18.9462 15.2492 19 15.4646 19 15.7158C18.8925 16.0209 18.8209 16.3619 18.6776 16.6849Z" fill="#4A556C" fill-opacity="0.5"/>
</svg>
