<svg width="650" height="650" viewBox="0 0 650 650" fill="none" xmlns="http://www.w3.org/2000/svg">
<rect width="650" height="650" rx="75" fill="white"/>
<path d="M529.5 257.5C517.167 222.86 507.124 204.815 484 175" stroke="url(#paint0_linear_147_177)" stroke-width="3" stroke-linecap="round" stroke-linejoin="round"/>
<g filter="url(#filter0_d_147_177)">
<path d="M95 302.006C110.483 227.927 144.5 177.054 178 148C211.5 118.947 255 91.9995 326.5 92C398 92.0005 443 122.012 478 150.006C513 178 548.608 234.083 555.5 302.006" stroke="url(#paint1_radial_147_177)" stroke-width="12" stroke-linecap="round" stroke-linejoin="round" shape-rendering="crispEdges"/>
</g>
<path d="M77.6207 348.683C69.96 341.668 54 327.625 54 327.625C54 327.625 87.8351 324.439 106.987 322.52C126.139 320.601 153.974 314.691 187.425 316.773C187.425 316.773 209.769 319.325 221.899 323.792C234.028 328.259 244.881 333.368 244.881 333.368C244.881 333.368 257.649 338.64 272.971 349.954C288.292 361.269 313.828 399.093 313.828 399.093L282.547 348.683C282.547 348.683 276.163 335.916 272.971 326.344C267.863 311.03 266.587 291.249 266.587 278.487C266.587 265.725 266.374 259.987 268.79 241.477C270.19 230.746 274.247 215.315 285.739 190.429C297.23 165.543 299.174 161.221 304.54 150.229C317.308 124.071 322.127 102.376 324.042 103.014C325.958 103.652 338.726 137.476 345.748 152.147C352.77 166.819 362.346 184.053 366.815 194.262C371.284 204.472 376.391 217.877 380.221 235.739C384.052 253.601 381.498 291.892 380.221 302.739C378.945 313.587 371.922 339.116 365.538 348.683C359.154 358.249 333.618 399.093 333.618 399.093C333.618 399.093 367.453 356.978 378.306 348.683C389.159 340.387 398.735 336.563 407.673 333.368C416.61 330.173 447.253 320.601 463.852 318.692C480.45 316.782 502.719 319.057 527.691 321.882C552.663 324.708 568.139 326.445 596 327.625L571.741 348.683L541.098 378.035C541.098 378.035 527.691 391.431 510.455 404.835C493.218 418.24 472.151 425.893 463.852 429.083C455.552 432.274 442.535 434.961 428.101 436.741C419.047 438.045 413.887 438.489 404.481 438.655C392.675 438.099 386.387 436.974 375.753 433.55C375.753 433.55 365.538 429.721 357.878 428.445C350.217 427.169 333.618 425.893 333.618 425.893H313.828C279.993 429.083 281.908 434.822 256.372 438.65C230.836 442.479 211.768 437.744 188.064 429.721C167.335 423.305 156.859 418.064 140.184 405.474C128.256 395.938 124.304 392.146 108.749 377.22L108.264 376.754L94.8575 364.63C94.8575 364.63 85.2815 355.697 77.6207 348.683Z" fill="url(#paint2_radial_147_177)" stroke="black" stroke-width="4" stroke-linejoin="round"/>
<path d="M162.93 486.932L154.57 469.718H158.598L162.74 478.553L164.45 482.562H164.697L166.407 478.553L170.53 469.718H174.558L166.217 486.932H162.93ZM162.702 494V483.398H166.445V494H162.702ZM185.539 494L185.691 489.592L185.558 489.022V483.17L185.577 482.239C185.577 480.808 185.209 479.756 184.475 479.085C183.753 478.414 182.587 478.078 180.979 478.078C179.674 478.078 178.464 478.262 177.35 478.629C176.235 478.996 175.228 479.421 174.329 479.902L174.671 476.786C175.177 476.495 175.773 476.21 176.457 475.931C177.141 475.652 177.913 475.424 178.775 475.247C179.636 475.07 180.58 474.981 181.606 474.981C183.012 474.981 184.202 475.152 185.178 475.494C186.153 475.823 186.938 476.305 187.534 476.938C188.129 477.571 188.56 478.331 188.826 479.218C189.104 480.105 189.244 481.093 189.244 482.182V494H185.539ZM179.25 494.418C177.413 494.418 176.007 493.968 175.032 493.069C174.056 492.157 173.569 490.865 173.569 489.193V488.623C173.569 486.85 174.113 485.539 175.203 484.69C176.305 483.829 178.034 483.233 180.39 482.904L185.976 482.106L186.185 484.804L180.827 485.564C179.547 485.741 178.635 486.052 178.091 486.495C177.546 486.926 177.274 487.565 177.274 488.414V488.68C177.274 489.529 177.533 490.181 178.053 490.637C178.585 491.093 179.389 491.321 180.466 491.321C181.454 491.321 182.302 491.156 183.012 490.827C183.721 490.498 184.297 490.061 184.741 489.516C185.184 488.959 185.488 488.344 185.653 487.673L186.166 490.162H185.482C185.279 490.922 184.943 491.625 184.475 492.271C184.006 492.917 183.347 493.436 182.499 493.829C181.663 494.222 180.58 494.418 179.25 494.418ZM201.783 490.713L199.807 491.568L205.032 475.418H208.851L200.396 500.536H196.634L199.579 491.815L201.251 493.221H197.052L191.219 475.418H195.076L199.712 490.713H201.783ZM222.092 494L222.244 489.592L222.111 489.022V483.17L222.13 482.239C222.13 480.808 221.762 479.756 221.028 479.085C220.306 478.414 219.14 478.078 217.532 478.078C216.227 478.078 215.017 478.262 213.903 478.629C212.788 478.996 211.781 479.421 210.882 479.902L211.224 476.786C211.73 476.495 212.326 476.21 213.01 475.931C213.694 475.652 214.466 475.424 215.328 475.247C216.189 475.07 217.133 474.981 218.159 474.981C219.565 474.981 220.755 475.152 221.731 475.494C222.706 475.823 223.491 476.305 224.087 476.938C224.682 477.571 225.113 478.331 225.379 479.218C225.657 480.105 225.797 481.093 225.797 482.182V494H222.092ZM215.803 494.418C213.966 494.418 212.56 493.968 211.585 493.069C210.609 492.157 210.122 490.865 210.122 489.193V488.623C210.122 486.85 210.666 485.539 211.756 484.69C212.858 483.829 214.587 483.233 216.943 482.904L222.529 482.106L222.738 484.804L217.38 485.564C216.1 485.741 215.188 486.052 214.644 486.495C214.099 486.926 213.827 487.565 213.827 488.414V488.68C213.827 489.529 214.086 490.181 214.606 490.637C215.138 491.093 215.942 491.321 217.019 491.321C218.007 491.321 218.855 491.156 219.565 490.827C220.274 490.498 220.85 490.061 221.294 489.516C221.737 488.959 222.041 488.344 222.206 487.673L222.719 490.162H222.035C221.832 490.922 221.496 491.625 221.028 492.271C220.559 492.917 219.9 493.436 219.052 493.829C218.216 494.222 217.133 494.418 215.803 494.418ZM236.171 494.437C234.676 494.437 233.365 494.285 232.238 493.981C231.11 493.664 230.167 493.322 229.407 492.955L229.065 489.554C230.002 490.023 231.034 490.434 232.162 490.789C233.289 491.131 234.556 491.302 235.962 491.302C237.317 491.302 238.318 491.106 238.964 490.713C239.622 490.308 239.952 489.712 239.952 488.927V488.775C239.952 488.268 239.819 487.85 239.553 487.521C239.287 487.179 238.812 486.875 238.128 486.609C237.456 486.343 236.5 486.071 235.259 485.792C233.701 485.437 232.472 485.019 231.573 484.538C230.673 484.057 230.027 483.468 229.635 482.771C229.255 482.062 229.065 481.213 229.065 480.225V480.054C229.065 478.382 229.647 477.115 230.813 476.254C231.978 475.393 233.726 474.962 236.057 474.962C237.526 474.962 238.805 475.12 239.895 475.437C240.984 475.754 241.883 476.115 242.593 476.52L242.935 479.617C242.086 479.161 241.117 478.781 240.028 478.477C238.951 478.16 237.754 478.002 236.437 478.002C235.537 478.002 234.815 478.091 234.271 478.268C233.726 478.433 233.333 478.673 233.093 478.99C232.852 479.294 232.732 479.661 232.732 480.092V480.225C232.732 480.694 232.858 481.105 233.112 481.46C233.365 481.802 233.815 482.112 234.461 482.391C235.119 482.657 236.031 482.917 237.197 483.17C238.767 483.499 240.021 483.886 240.959 484.329C241.896 484.772 242.574 485.342 242.992 486.039C243.41 486.723 243.619 487.61 243.619 488.699V488.984C243.619 490.795 242.998 492.157 241.757 493.069C240.515 493.981 238.653 494.437 236.171 494.437ZM258.088 494L258.24 489.592L258.107 489.022V483.17L258.126 482.239C258.126 480.808 257.758 479.756 257.024 479.085C256.302 478.414 255.136 478.078 253.528 478.078C252.223 478.078 251.013 478.262 249.899 478.629C248.784 478.996 247.777 479.421 246.878 479.902L247.22 476.786C247.726 476.495 248.322 476.21 249.006 475.931C249.69 475.652 250.462 475.424 251.324 475.247C252.185 475.07 253.129 474.981 254.155 474.981C255.561 474.981 256.751 475.152 257.727 475.494C258.702 475.823 259.487 476.305 260.083 476.938C260.678 477.571 261.109 478.331 261.375 479.218C261.653 480.105 261.793 481.093 261.793 482.182V494H258.088ZM251.799 494.418C249.962 494.418 248.556 493.968 247.581 493.069C246.605 492.157 246.118 490.865 246.118 489.193V488.623C246.118 486.85 246.662 485.539 247.752 484.69C248.854 483.829 250.583 483.233 252.939 482.904L258.525 482.106L258.734 484.804L253.376 485.564C252.096 485.741 251.184 486.052 250.64 486.495C250.095 486.926 249.823 487.565 249.823 488.414V488.68C249.823 489.529 250.082 490.181 250.602 490.637C251.134 491.093 251.938 491.321 253.015 491.321C254.003 491.321 254.851 491.156 255.561 490.827C256.27 490.498 256.846 490.061 257.29 489.516C257.733 488.959 258.037 488.344 258.202 487.673L258.715 490.162H258.031C257.828 490.922 257.492 491.625 257.024 492.271C256.555 492.917 255.896 493.436 255.048 493.829C254.212 494.222 253.129 494.418 251.799 494.418ZM278.512 494V482.524C278.512 481.625 278.385 480.846 278.132 480.187C277.891 479.528 277.486 479.015 276.916 478.648C276.358 478.281 275.592 478.097 274.617 478.097C273.717 478.097 272.938 478.262 272.28 478.591C271.621 478.92 271.083 479.364 270.665 479.921C270.259 480.478 269.968 481.112 269.791 481.821L269.183 479.237H269.981C270.196 478.452 270.551 477.742 271.045 477.109C271.539 476.463 272.197 475.95 273.021 475.57C273.844 475.19 274.864 475 276.08 475C277.536 475 278.714 475.279 279.614 475.836C280.513 476.381 281.172 477.179 281.59 478.23C282.02 479.281 282.236 480.573 282.236 482.106V494H278.512ZM266.2 494V475.418H269.924L269.772 479.769L269.924 479.997V494H266.2ZM299.33 494V470.383H303.149V494H299.33ZM292.186 472.91V469.718H310.274V472.91H292.186ZM315.786 475.418V486.894C315.786 487.781 315.906 488.56 316.147 489.231C316.4 489.89 316.812 490.403 317.382 490.77C317.952 491.137 318.718 491.321 319.681 491.321C320.593 491.321 321.372 491.156 322.018 490.827C322.676 490.498 323.215 490.054 323.633 489.497C324.051 488.927 324.342 488.294 324.507 487.597L325.115 490.181H324.317C324.101 490.954 323.747 491.663 323.253 492.309C322.759 492.955 322.1 493.468 321.277 493.848C320.453 494.228 319.434 494.418 318.218 494.418C316.774 494.418 315.596 494.146 314.684 493.601C313.784 493.044 313.119 492.239 312.689 491.188C312.271 490.124 312.062 488.832 312.062 487.312V475.418H315.786ZM328.098 475.418V494H324.374L324.526 489.649L324.374 489.421V475.418H328.098ZM345.123 494V482.524C345.123 481.625 344.996 480.846 344.743 480.187C344.502 479.528 344.097 479.015 343.527 478.648C342.97 478.281 342.203 478.097 341.228 478.097C340.329 478.097 339.55 478.262 338.891 478.591C338.232 478.92 337.694 479.364 337.276 479.921C336.871 480.478 336.579 481.112 336.402 481.821L335.794 479.237H336.592C336.807 478.452 337.162 477.742 337.656 477.109C338.15 476.463 338.809 475.95 339.632 475.57C340.455 475.19 341.475 475 342.691 475C344.148 475 345.326 475.279 346.225 475.836C347.124 476.381 347.783 477.179 348.201 478.23C348.632 479.281 348.847 480.573 348.847 482.106V494H345.123ZM332.811 494V475.418H336.535L336.383 479.769L336.535 479.997V494H332.811ZM364.258 494L364.41 489.592L364.277 489.022V483.17L364.296 482.239C364.296 480.808 363.928 479.756 363.194 479.085C362.472 478.414 361.306 478.078 359.698 478.078C358.393 478.078 357.183 478.262 356.069 478.629C354.954 478.996 353.947 479.421 353.048 479.902L353.39 476.786C353.896 476.495 354.492 476.21 355.176 475.931C355.86 475.652 356.632 475.424 357.494 475.247C358.355 475.07 359.299 474.981 360.325 474.981C361.731 474.981 362.921 475.152 363.897 475.494C364.872 475.823 365.657 476.305 366.253 476.938C366.848 477.571 367.279 478.331 367.545 479.218C367.823 480.105 367.963 481.093 367.963 482.182V494H364.258ZM357.969 494.418C356.132 494.418 354.726 493.968 353.751 493.069C352.775 492.157 352.288 490.865 352.288 489.193V488.623C352.288 486.85 352.832 485.539 353.922 484.69C355.024 483.829 356.753 483.233 359.109 482.904L364.695 482.106L364.904 484.804L359.546 485.564C358.266 485.741 357.354 486.052 356.81 486.495C356.265 486.926 355.993 487.565 355.993 488.414V488.68C355.993 489.529 356.252 490.181 356.772 490.637C357.304 491.093 358.108 491.321 359.185 491.321C360.173 491.321 361.021 491.156 361.731 490.827C362.44 490.498 363.016 490.061 363.46 489.516C363.903 488.959 364.207 488.344 364.372 487.673L364.885 490.162H364.201C363.998 490.922 363.662 491.625 363.194 492.271C362.725 492.917 362.066 493.436 361.218 493.829C360.382 494.222 359.299 494.418 357.969 494.418ZM378.337 494.437C376.842 494.437 375.531 494.285 374.404 493.981C373.276 493.664 372.333 493.322 371.573 492.955L371.231 489.554C372.168 490.023 373.2 490.434 374.328 490.789C375.455 491.131 376.722 491.302 378.128 491.302C379.483 491.302 380.484 491.106 381.13 490.713C381.788 490.308 382.118 489.712 382.118 488.927V488.775C382.118 488.268 381.985 487.85 381.719 487.521C381.453 487.179 380.978 486.875 380.294 486.609C379.622 486.343 378.666 486.071 377.425 485.792C375.867 485.437 374.638 485.019 373.739 484.538C372.839 484.057 372.193 483.468 371.801 482.771C371.421 482.062 371.231 481.213 371.231 480.225V480.054C371.231 478.382 371.813 477.115 372.979 476.254C374.144 475.393 375.892 474.962 378.223 474.962C379.692 474.962 380.971 475.12 382.061 475.437C383.15 475.754 384.049 476.115 384.759 476.52L385.101 479.617C384.252 479.161 383.283 478.781 382.194 478.477C381.117 478.16 379.92 478.002 378.603 478.002C377.703 478.002 376.981 478.091 376.437 478.268C375.892 478.433 375.499 478.673 375.259 478.99C375.018 479.294 374.898 479.661 374.898 480.092V480.225C374.898 480.694 375.024 481.105 375.278 481.46C375.531 481.802 375.981 482.112 376.627 482.391C377.285 482.657 378.197 482.917 379.363 483.17C380.933 483.499 382.187 483.886 383.125 484.329C384.062 484.772 384.74 485.342 385.158 486.039C385.576 486.723 385.785 487.61 385.785 488.699V488.984C385.785 490.795 385.164 492.157 383.923 493.069C382.681 493.981 380.819 494.437 378.337 494.437ZM394.376 494L401.824 469.718H407.733L415.181 494H411.324L405.016 472.264H404.541L398.233 494H394.376ZM399.24 487.217V484.063H410.279V487.217H399.24ZM425.444 488.376C422.835 488.376 420.833 487.819 419.44 486.704C418.047 485.589 417.35 484 417.35 481.935V481.631C417.35 480.326 417.622 479.199 418.167 478.249C418.712 477.286 419.579 476.539 420.77 476.007C421.973 475.462 423.544 475.158 425.482 475.095L435.134 474.772V477.679L429.966 477.451V477.66C430.701 477.85 431.309 478.148 431.79 478.553C432.284 478.946 432.658 479.44 432.911 480.035C433.164 480.63 433.291 481.333 433.291 482.144V482.353C433.291 484.304 432.626 485.798 431.296 486.837C429.979 487.863 428.028 488.376 425.444 488.376ZM425.292 498.199H425.767C426.844 498.199 427.756 498.123 428.503 497.971C429.25 497.819 429.82 497.578 430.213 497.249C430.618 496.92 430.821 496.483 430.821 495.938V495.881C430.821 495.235 430.593 494.747 430.137 494.418C429.681 494.101 428.889 493.892 427.762 493.791L422.404 493.278L423.335 493.24C422.727 493.341 422.189 493.5 421.72 493.715C421.264 493.918 420.903 494.184 420.637 494.513C420.384 494.855 420.257 495.273 420.257 495.767V495.805C420.257 496.388 420.453 496.856 420.846 497.211C421.251 497.566 421.828 497.819 422.575 497.971C423.335 498.123 424.241 498.199 425.292 498.199ZM425.064 501.163C423.354 501.163 421.878 501.011 420.637 500.707C419.408 500.416 418.458 499.941 417.787 499.282C417.128 498.636 416.799 497.775 416.799 496.698V496.622C416.799 495.9 416.957 495.292 417.274 494.798C417.603 494.304 418.047 493.911 418.604 493.62C419.174 493.316 419.807 493.113 420.504 493.012V492.822C419.579 492.632 418.889 492.322 418.433 491.891C417.99 491.448 417.768 490.878 417.768 490.181V490.162C417.768 489.681 417.876 489.269 418.091 488.927C418.306 488.572 418.629 488.294 419.06 488.091C419.503 487.876 420.054 487.736 420.713 487.673V487.255L424.627 488.205L423.202 488.148C422.455 488.161 421.935 488.256 421.644 488.433C421.365 488.61 421.226 488.864 421.226 489.193V489.212C421.226 489.592 421.435 489.877 421.853 490.067C422.284 490.244 423.006 490.39 424.019 490.504L428.541 490.998C430.542 491.213 432.005 491.701 432.93 492.461C433.855 493.221 434.317 494.374 434.317 495.919V496.014C434.317 497.205 433.969 498.18 433.272 498.94C432.588 499.7 431.6 500.257 430.308 500.612C429.029 500.979 427.49 501.163 425.691 501.163H425.064ZM425.387 485.64C426.362 485.64 427.173 485.501 427.819 485.222C428.478 484.931 428.972 484.5 429.301 483.93C429.63 483.36 429.795 482.663 429.795 481.84V481.555C429.795 480.744 429.63 480.06 429.301 479.503C428.984 478.946 428.503 478.521 427.857 478.23C427.224 477.939 426.419 477.793 425.444 477.793H425.349C424.298 477.793 423.443 477.951 422.784 478.268C422.125 478.572 421.644 479.009 421.34 479.579C421.049 480.136 420.903 480.801 420.903 481.574V481.84C420.903 482.663 421.068 483.36 421.397 483.93C421.726 484.5 422.22 484.931 422.879 485.222C423.55 485.501 424.386 485.64 425.387 485.64ZM441.141 475.418V486.894C441.141 487.781 441.261 488.56 441.502 489.231C441.755 489.89 442.167 490.403 442.737 490.77C443.307 491.137 444.073 491.321 445.036 491.321C445.948 491.321 446.727 491.156 447.373 490.827C448.032 490.498 448.57 490.054 448.988 489.497C449.406 488.927 449.697 488.294 449.862 487.597L450.47 490.181H449.672C449.457 490.954 449.102 491.663 448.608 492.309C448.114 492.955 447.455 493.468 446.632 493.848C445.809 494.228 444.789 494.418 443.573 494.418C442.129 494.418 440.951 494.146 440.039 493.601C439.14 493.044 438.475 492.239 438.044 491.188C437.626 490.124 437.417 488.832 437.417 487.312V475.418H441.141ZM453.453 475.418V494H449.729L449.881 489.649L449.729 489.421V475.418H453.453ZM470.479 494V482.524C470.479 481.625 470.352 480.846 470.099 480.187C469.858 479.528 469.453 479.015 468.883 478.648C468.325 478.281 467.559 478.097 466.584 478.097C465.684 478.097 464.905 478.262 464.247 478.591C463.588 478.92 463.05 479.364 462.632 479.921C462.226 480.478 461.935 481.112 461.758 481.821L461.15 479.237H461.948C462.163 478.452 462.518 477.742 463.012 477.109C463.506 476.463 464.164 475.95 464.988 475.57C465.811 475.19 466.831 475 468.047 475C469.503 475 470.681 475.279 471.581 475.836C472.48 476.381 473.139 477.179 473.557 478.23C473.987 479.281 474.203 480.573 474.203 482.106V494H470.479ZM458.167 494V475.418H461.891L461.739 479.769L461.891 479.997V494H458.167ZM486.155 488.376C483.546 488.376 481.544 487.819 480.151 486.704C478.758 485.589 478.061 484 478.061 481.935V481.631C478.061 480.326 478.333 479.199 478.878 478.249C479.423 477.286 480.29 476.539 481.481 476.007C482.684 475.462 484.255 475.158 486.193 475.095L495.845 474.772V477.679L490.677 477.451V477.66C491.412 477.85 492.02 478.148 492.501 478.553C492.995 478.946 493.369 479.44 493.622 480.035C493.875 480.63 494.002 481.333 494.002 482.144V482.353C494.002 484.304 493.337 485.798 492.007 486.837C490.69 487.863 488.739 488.376 486.155 488.376ZM486.003 498.199H486.478C487.555 498.199 488.467 498.123 489.214 497.971C489.961 497.819 490.531 497.578 490.924 497.249C491.329 496.92 491.532 496.483 491.532 495.938V495.881C491.532 495.235 491.304 494.747 490.848 494.418C490.392 494.101 489.6 493.892 488.473 493.791L483.115 493.278L484.046 493.24C483.438 493.341 482.9 493.5 482.431 493.715C481.975 493.918 481.614 494.184 481.348 494.513C481.095 494.855 480.968 495.273 480.968 495.767V495.805C480.968 496.388 481.164 496.856 481.557 497.211C481.962 497.566 482.539 497.819 483.286 497.971C484.046 498.123 484.952 498.199 486.003 498.199ZM485.775 501.163C484.065 501.163 482.589 501.011 481.348 500.707C480.119 500.416 479.169 499.941 478.498 499.282C477.839 498.636 477.51 497.775 477.51 496.698V496.622C477.51 495.9 477.668 495.292 477.985 494.798C478.314 494.304 478.758 493.911 479.315 493.62C479.885 493.316 480.518 493.113 481.215 493.012V492.822C480.29 492.632 479.6 492.322 479.144 491.891C478.701 491.448 478.479 490.878 478.479 490.181V490.162C478.479 489.681 478.587 489.269 478.802 488.927C479.017 488.572 479.34 488.294 479.771 488.091C480.214 487.876 480.765 487.736 481.424 487.673V487.255L485.338 488.205L483.913 488.148C483.166 488.161 482.646 488.256 482.355 488.433C482.076 488.61 481.937 488.864 481.937 489.193V489.212C481.937 489.592 482.146 489.877 482.564 490.067C482.995 490.244 483.717 490.39 484.73 490.504L489.252 490.998C491.253 491.213 492.716 491.701 493.641 492.461C494.566 493.221 495.028 494.374 495.028 495.919V496.014C495.028 497.205 494.68 498.18 493.983 498.94C493.299 499.7 492.311 500.257 491.019 500.612C489.74 500.979 488.201 501.163 486.402 501.163H485.775ZM486.098 485.64C487.073 485.64 487.884 485.501 488.53 485.222C489.189 484.931 489.683 484.5 490.012 483.93C490.341 483.36 490.506 482.663 490.506 481.84V481.555C490.506 480.744 490.341 480.06 490.012 479.503C489.695 478.946 489.214 478.521 488.568 478.23C487.935 477.939 487.13 477.793 486.155 477.793H486.06C485.009 477.793 484.154 477.951 483.495 478.268C482.836 478.572 482.355 479.009 482.051 479.579C481.76 480.136 481.614 480.801 481.614 481.574V481.84C481.614 482.663 481.779 483.36 482.108 483.93C482.437 484.5 482.931 484.931 483.59 485.222C484.261 485.501 485.097 485.64 486.098 485.64ZM233.575 516.606L244.408 540.986H244.684L244.5 528.29V516.606H248.985V546H242.246L231.252 521.344H230.976L231.16 534.569V546H226.675V516.606H233.575ZM259.333 523.506V537.398C259.333 538.471 259.479 539.414 259.77 540.227C260.077 541.024 260.575 541.645 261.265 542.09C261.955 542.535 262.883 542.757 264.048 542.757C265.152 542.757 266.095 542.558 266.877 542.159C267.674 541.76 268.326 541.224 268.832 540.549C269.338 539.859 269.691 539.092 269.89 538.249L270.626 541.377H269.66C269.399 542.312 268.97 543.171 268.372 543.953C267.774 544.735 266.977 545.356 265.98 545.816C264.983 546.276 263.749 546.506 262.277 546.506C260.529 546.506 259.103 546.176 257.999 545.517C256.91 544.842 256.105 543.869 255.584 542.596C255.078 541.308 254.825 539.744 254.825 537.904V523.506H259.333ZM274.237 523.506V546H269.729L269.913 540.733L269.729 540.457V523.506H274.237ZM287.211 546.529C285.401 546.529 283.814 546.345 282.45 545.977C281.085 545.594 279.943 545.18 279.023 544.735L278.609 540.618C279.743 541.185 280.993 541.684 282.358 542.113C283.722 542.527 285.256 542.734 286.958 542.734C288.598 542.734 289.81 542.496 290.592 542.021C291.389 541.53 291.788 540.81 291.788 539.859V539.675C291.788 539.062 291.627 538.556 291.305 538.157C290.983 537.743 290.408 537.375 289.58 537.053C288.767 536.731 287.609 536.401 286.107 536.064C284.221 535.635 282.733 535.129 281.645 534.546C280.556 533.963 279.774 533.25 279.299 532.407C278.839 531.548 278.609 530.521 278.609 529.325V529.118C278.609 527.094 279.314 525.561 280.725 524.518C282.135 523.475 284.251 522.954 287.073 522.954C288.851 522.954 290.4 523.146 291.719 523.529C293.037 523.912 294.126 524.349 294.985 524.84L295.399 528.589C294.371 528.037 293.198 527.577 291.88 527.209C290.576 526.826 289.127 526.634 287.533 526.634C286.444 526.634 285.57 526.741 284.911 526.956C284.251 527.155 283.776 527.447 283.485 527.83C283.193 528.198 283.048 528.643 283.048 529.164V529.325C283.048 529.892 283.201 530.391 283.508 530.82C283.814 531.234 284.359 531.61 285.141 531.947C285.938 532.269 287.042 532.583 288.453 532.89C290.354 533.289 291.872 533.756 293.007 534.293C294.141 534.83 294.962 535.52 295.468 536.363C295.974 537.191 296.227 538.264 296.227 539.583V539.928C296.227 542.121 295.475 543.769 293.973 544.873C292.47 545.977 290.216 546.529 287.211 546.529ZM313.742 546L313.926 540.664L313.765 539.974V532.89L313.788 531.763C313.788 530.03 313.343 528.758 312.454 527.945C311.58 527.132 310.169 526.726 308.222 526.726C306.643 526.726 305.178 526.948 303.829 527.393C302.48 527.838 301.261 528.351 300.172 528.934L300.586 525.162C301.199 524.809 301.92 524.464 302.748 524.127C303.576 523.79 304.511 523.514 305.554 523.299C306.597 523.084 307.739 522.977 308.981 522.977C310.683 522.977 312.124 523.184 313.305 523.598C314.486 523.997 315.436 524.579 316.157 525.346C316.878 526.113 317.399 527.033 317.721 528.106C318.058 529.179 318.227 530.375 318.227 531.694V546H313.742ZM306.129 546.506C303.906 546.506 302.204 545.962 301.023 544.873C299.842 543.769 299.252 542.205 299.252 540.181V539.491C299.252 537.344 299.911 535.757 301.23 534.73C302.564 533.687 304.657 532.967 307.509 532.568L314.271 531.602L314.524 534.868L308.038 535.788C306.489 536.003 305.385 536.378 304.726 536.915C304.067 537.436 303.737 538.211 303.737 539.238V539.56C303.737 540.587 304.051 541.377 304.68 541.929C305.324 542.481 306.298 542.757 307.601 542.757C308.797 542.757 309.824 542.558 310.683 542.159C311.542 541.76 312.239 541.231 312.776 540.572C313.313 539.897 313.681 539.154 313.88 538.341L314.501 541.354H313.673C313.428 542.274 313.021 543.125 312.454 543.907C311.887 544.689 311.089 545.318 310.062 545.793C309.05 546.268 307.739 546.506 306.129 546.506ZM338.466 546V532.108C338.466 531.019 338.313 530.076 338.006 529.279C337.715 528.482 337.224 527.861 336.534 527.416C335.859 526.971 334.932 526.749 333.751 526.749C332.662 526.749 331.719 526.948 330.922 527.347C330.125 527.746 329.473 528.282 328.967 528.957C328.476 529.632 328.124 530.398 327.909 531.257L327.173 528.129H328.139C328.4 527.178 328.829 526.32 329.427 525.553C330.025 524.771 330.822 524.15 331.819 523.69C332.816 523.23 334.05 523 335.522 523C337.285 523 338.711 523.337 339.8 524.012C340.889 524.671 341.686 525.637 342.192 526.91C342.713 528.183 342.974 529.747 342.974 531.602V546H338.466ZM323.562 546V523.506H328.07L327.886 528.773L328.07 529.049V546H323.562ZM356.686 546.46C354.892 546.46 353.451 546.192 352.362 545.655C351.273 545.103 350.484 544.283 349.993 543.194C349.502 542.09 349.257 540.718 349.257 539.077V525.323H353.719V538.548C353.719 539.928 354.033 540.94 354.662 541.584C355.291 542.228 356.349 542.55 357.836 542.55C358.725 542.55 359.576 542.458 360.389 542.274C361.202 542.09 361.953 541.829 362.643 541.492L362.252 545.31C361.516 545.678 360.665 545.962 359.699 546.161C358.733 546.36 357.729 546.46 356.686 546.46ZM345.738 527.37V523.782H362.436L362.045 527.37H345.738ZM349.303 524.173L349.28 517.986L353.788 517.457L353.604 524.173H349.303ZM379.777 546L379.961 540.664L379.8 539.974V532.89L379.823 531.763C379.823 530.03 379.379 528.758 378.489 527.945C377.615 527.132 376.205 526.726 374.257 526.726C372.678 526.726 371.214 526.948 369.864 527.393C368.515 527.838 367.296 528.351 366.207 528.934L366.621 525.162C367.235 524.809 367.955 524.464 368.783 524.127C369.611 523.79 370.547 523.514 371.589 523.299C372.632 523.084 373.774 522.977 375.016 522.977C376.718 522.977 378.16 523.184 379.34 523.598C380.521 523.997 381.472 524.579 382.192 525.346C382.913 526.113 383.434 527.033 383.756 528.106C384.094 529.179 384.262 530.375 384.262 531.694V546H379.777ZM372.164 546.506C369.941 546.506 368.239 545.962 367.058 544.873C365.878 543.769 365.287 542.205 365.287 540.181V539.491C365.287 537.344 365.947 535.757 367.265 534.73C368.599 533.687 370.692 532.967 373.544 532.568L380.306 531.602L380.559 534.868L374.073 535.788C372.525 536.003 371.421 536.378 370.761 536.915C370.102 537.436 369.772 538.211 369.772 539.238V539.56C369.772 540.587 370.087 541.377 370.715 541.929C371.359 542.481 372.333 542.757 373.636 542.757C374.832 542.757 375.86 542.558 376.718 542.159C377.577 541.76 378.275 541.231 378.811 540.572C379.348 539.897 379.716 539.154 379.915 538.341L380.536 541.354H379.708C379.463 542.274 379.057 543.125 378.489 543.907C377.922 544.689 377.125 545.318 376.097 545.793C375.085 546.268 373.774 546.506 372.164 546.506ZM393.921 532.407L392.955 528.888H394.059C394.534 527.109 395.332 525.714 396.451 524.702C397.57 523.675 399.096 523.161 401.028 523.161C401.488 523.161 401.894 523.199 402.247 523.276C402.615 523.337 402.945 523.414 403.236 523.506L403.512 527.899C403.144 527.776 402.73 527.684 402.27 527.623C401.81 527.546 401.312 527.508 400.775 527.508C399.134 527.508 397.716 527.93 396.52 528.773C395.324 529.616 394.458 530.828 393.921 532.407ZM389.597 546V523.506H393.99L393.783 530.061L394.105 530.383V546H389.597ZM419.623 546L419.807 540.664L419.646 539.974V532.89L419.669 531.763C419.669 530.03 419.224 528.758 418.335 527.945C417.461 527.132 416.05 526.726 414.103 526.726C412.524 526.726 411.059 526.948 409.71 527.393C408.361 527.838 407.142 528.351 406.053 528.934L406.467 525.162C407.08 524.809 407.801 524.464 408.629 524.127C409.457 523.79 410.392 523.514 411.435 523.299C412.478 523.084 413.62 522.977 414.862 522.977C416.564 522.977 418.005 523.184 419.186 523.598C420.367 523.997 421.317 524.579 422.038 525.346C422.759 526.113 423.28 527.033 423.602 528.106C423.939 529.179 424.108 530.375 424.108 531.694V546H419.623ZM412.01 546.506C409.787 546.506 408.085 545.962 406.904 544.873C405.723 543.769 405.133 542.205 405.133 540.181V539.491C405.133 537.344 405.792 535.757 407.111 534.73C408.445 533.687 410.538 532.967 413.39 532.568L420.152 531.602L420.405 534.868L413.919 535.788C412.37 536.003 411.266 536.378 410.607 536.915C409.948 537.436 409.618 538.211 409.618 539.238V539.56C409.618 540.587 409.932 541.377 410.561 541.929C411.205 542.481 412.179 542.757 413.482 542.757C414.678 542.757 415.705 542.558 416.564 542.159C417.423 541.76 418.12 541.231 418.657 540.572C419.194 539.897 419.562 539.154 419.761 538.341L420.382 541.354H419.554C419.309 542.274 418.902 543.125 418.335 543.907C417.768 544.689 416.97 545.318 415.943 545.793C414.931 546.268 413.62 546.506 412.01 546.506Z" fill="black"/>
<defs>
<filter id="filter0_d_147_177" x="76.9988" y="65" width="496.502" height="246.007" filterUnits="userSpaceOnUse" color-interpolation-filters="sRGB">
<feFlood flood-opacity="0" result="BackgroundImageFix"/>
<feColorMatrix in="SourceAlpha" type="matrix" values="0 0 0 0 0 0 0 0 0 0 0 0 0 0 0 0 0 0 127 0" result="hardAlpha"/>
<feOffset dy="-9"/>
<feGaussianBlur stdDeviation="6"/>
<feComposite in2="hardAlpha" operator="out"/>
<feColorMatrix type="matrix" values="0 0 0 0 0.884679 0 0 0 0 0.865838 0 0 0 0 0.404249 0 0 0 0.35 0"/>
<feBlend mode="normal" in2="BackgroundImageFix" result="effect1_dropShadow_147_177"/>
<feBlend mode="normal" in="SourceGraphic" in2="effect1_dropShadow_147_177" result="shape"/>
</filter>
<linearGradient id="paint0_linear_147_177" x1="535" y1="276.5" x2="480.5" y2="175" gradientUnits="userSpaceOnUse">
<stop offset="0.0258688" stop-color="#D9D7A1" stop-opacity="0.5"/>
<stop offset="0.802531" stop-color="#FDFCE6"/>
</linearGradient>
<radialGradient id="paint1_radial_147_177" cx="0" cy="0" r="1" gradientUnits="userSpaceOnUse" gradientTransform="translate(315.5 474.5) rotate(-89.0567) scale(577.078 2348.61)">
<stop offset="0.31807" stop-color="#F6F5C0" stop-opacity="0.1"/>
<stop offset="0.493141" stop-color="#F3F1C0"/>
<stop offset="0.941262" stop-color="#E2DD67" stop-opacity="0"/>
</radialGradient>
<radialGradient id="paint2_radial_147_177" cx="0" cy="0" r="1" gradientUnits="userSpaceOnUse" gradientTransform="translate(324.681 102.371) rotate(90) scale(631.72 1040.1)">
<stop offset="0.254448" stop-color="#B7630F"/>
<stop offset="0.56615" stop-color="#EBC54D"/>
</radialGradient>
</defs>
</svg>
