<svg width="562" height="562" viewBox="0 0 562 562" fill="none" xmlns="http://www.w3.org/2000/svg">
<path d="M485.5 217.5C473.167 182.86 463.124 164.815 440 135" stroke="url(#paint0_linear_145_41)" stroke-width="3" stroke-linecap="round" stroke-linejoin="round"/>
<g filter="url(#filter0_d_145_41)">
<path d="M51 262.006C66.4829 187.927 100.5 137.054 134 108C167.5 78.9474 211 51.9995 282.5 52C354 52.0005 399 82.0116 434 110.006C469 138 504.608 194.083 511.5 262.006" stroke="url(#paint1_radial_145_41)" stroke-width="12" stroke-linecap="round" stroke-linejoin="round" shape-rendering="crispEdges"/>
</g>
<path d="M33.6207 308.683C25.96 301.668 10 287.625 10 287.625C10 287.625 43.8351 284.439 62.987 282.52C82.139 280.601 109.974 274.691 143.425 276.773C143.425 276.773 165.769 279.325 177.899 283.792C190.028 288.259 200.881 293.368 200.881 293.368C200.881 293.368 213.649 298.64 228.971 309.954C244.292 321.269 269.828 359.093 269.828 359.093L238.547 308.683C238.547 308.683 232.163 295.916 228.971 286.344C223.863 271.03 222.587 251.249 222.587 238.487C222.587 225.725 222.374 219.987 224.79 201.477C226.19 190.746 230.247 175.315 241.739 150.429C253.23 125.543 255.174 121.221 260.54 110.229C273.308 84.0707 278.127 62.3756 280.042 63.0137C281.958 63.6518 294.726 97.4759 301.748 112.147C308.77 126.819 318.346 144.053 322.815 154.262C327.284 164.472 332.391 177.877 336.221 195.739C340.052 213.601 337.498 251.892 336.221 262.739C334.945 273.587 327.922 299.116 321.538 308.683C315.154 318.249 289.618 359.093 289.618 359.093C289.618 359.093 323.453 316.978 334.306 308.683C345.159 300.387 354.735 296.563 363.673 293.368C372.61 290.173 403.253 280.601 419.852 278.692C436.45 276.782 458.719 279.057 483.691 281.882C508.663 284.708 524.139 286.445 552 287.625L527.741 308.683L497.098 338.035C497.098 338.035 483.691 351.431 466.455 364.835C449.218 378.24 428.151 385.893 419.852 389.083C411.552 392.274 398.535 394.961 384.101 396.741C375.047 398.045 369.887 398.489 360.481 398.655C348.675 398.099 342.387 396.974 331.753 393.55C331.753 393.55 321.538 389.721 313.878 388.445C306.217 387.169 289.618 385.893 289.618 385.893H269.828C235.993 389.083 237.908 394.822 212.372 398.65C186.836 402.479 167.768 397.744 144.064 389.721C123.335 383.305 112.859 378.064 96.1837 365.474C84.2555 355.938 80.3044 352.146 64.7487 337.22L64.2638 336.754L50.8575 324.63C50.8575 324.63 41.2815 315.697 33.6207 308.683Z" fill="url(#paint2_radial_145_41)" stroke="black" stroke-width="4" stroke-linejoin="round"/>
<path d="M118.93 446.932L110.57 429.718H114.598L118.74 438.553L120.45 442.562H120.697L122.407 438.553L126.53 429.718H130.558L122.217 446.932H118.93ZM118.702 454V443.398H122.445V454H118.702ZM141.539 454L141.691 449.592L141.558 449.022V443.17L141.577 442.239C141.577 440.808 141.209 439.756 140.475 439.085C139.753 438.414 138.587 438.078 136.979 438.078C135.674 438.078 134.464 438.262 133.35 438.629C132.235 438.996 131.228 439.421 130.329 439.902L130.671 436.786C131.177 436.495 131.773 436.21 132.457 435.931C133.141 435.652 133.913 435.424 134.775 435.247C135.636 435.07 136.58 434.981 137.606 434.981C139.012 434.981 140.202 435.152 141.178 435.494C142.153 435.823 142.938 436.305 143.534 436.938C144.129 437.571 144.56 438.331 144.826 439.218C145.104 440.105 145.244 441.093 145.244 442.182V454H141.539ZM135.25 454.418C133.413 454.418 132.007 453.968 131.032 453.069C130.056 452.157 129.569 450.865 129.569 449.193V448.623C129.569 446.85 130.113 445.539 131.203 444.69C132.305 443.829 134.034 443.233 136.39 442.904L141.976 442.106L142.185 444.804L136.827 445.564C135.547 445.741 134.635 446.052 134.091 446.495C133.546 446.926 133.274 447.565 133.274 448.414V448.68C133.274 449.529 133.533 450.181 134.053 450.637C134.585 451.093 135.389 451.321 136.466 451.321C137.454 451.321 138.302 451.156 139.012 450.827C139.721 450.498 140.297 450.061 140.741 449.516C141.184 448.959 141.488 448.344 141.653 447.673L142.166 450.162H141.482C141.279 450.922 140.943 451.625 140.475 452.271C140.006 452.917 139.347 453.436 138.499 453.829C137.663 454.222 136.58 454.418 135.25 454.418ZM157.783 450.713L155.807 451.568L161.032 435.418H164.851L156.396 460.536H152.634L155.579 451.815L157.251 453.221H153.052L147.219 435.418H151.076L155.712 450.713H157.783ZM178.092 454L178.244 449.592L178.111 449.022V443.17L178.13 442.239C178.13 440.808 177.762 439.756 177.028 439.085C176.306 438.414 175.14 438.078 173.532 438.078C172.227 438.078 171.017 438.262 169.903 438.629C168.788 438.996 167.781 439.421 166.882 439.902L167.224 436.786C167.73 436.495 168.326 436.21 169.01 435.931C169.694 435.652 170.466 435.424 171.328 435.247C172.189 435.07 173.133 434.981 174.159 434.981C175.565 434.981 176.755 435.152 177.731 435.494C178.706 435.823 179.491 436.305 180.087 436.938C180.682 437.571 181.113 438.331 181.379 439.218C181.657 440.105 181.797 441.093 181.797 442.182V454H178.092ZM171.803 454.418C169.966 454.418 168.56 453.968 167.585 453.069C166.609 452.157 166.122 450.865 166.122 449.193V448.623C166.122 446.85 166.666 445.539 167.756 444.69C168.858 443.829 170.587 443.233 172.943 442.904L178.529 442.106L178.738 444.804L173.38 445.564C172.1 445.741 171.188 446.052 170.644 446.495C170.099 446.926 169.827 447.565 169.827 448.414V448.68C169.827 449.529 170.086 450.181 170.606 450.637C171.138 451.093 171.942 451.321 173.019 451.321C174.007 451.321 174.855 451.156 175.565 450.827C176.274 450.498 176.85 450.061 177.294 449.516C177.737 448.959 178.041 448.344 178.206 447.673L178.719 450.162H178.035C177.832 450.922 177.496 451.625 177.028 452.271C176.559 452.917 175.9 453.436 175.052 453.829C174.216 454.222 173.133 454.418 171.803 454.418ZM192.171 454.437C190.676 454.437 189.365 454.285 188.238 453.981C187.11 453.664 186.167 453.322 185.407 452.955L185.065 449.554C186.002 450.023 187.034 450.434 188.162 450.789C189.289 451.131 190.556 451.302 191.962 451.302C193.317 451.302 194.318 451.106 194.964 450.713C195.622 450.308 195.952 449.712 195.952 448.927V448.775C195.952 448.268 195.819 447.85 195.553 447.521C195.287 447.179 194.812 446.875 194.128 446.609C193.456 446.343 192.5 446.071 191.259 445.792C189.701 445.437 188.472 445.019 187.573 444.538C186.673 444.057 186.027 443.468 185.635 442.771C185.255 442.062 185.065 441.213 185.065 440.225V440.054C185.065 438.382 185.647 437.115 186.813 436.254C187.978 435.393 189.726 434.962 192.057 434.962C193.526 434.962 194.805 435.12 195.895 435.437C196.984 435.754 197.883 436.115 198.593 436.52L198.935 439.617C198.086 439.161 197.117 438.781 196.028 438.477C194.951 438.16 193.754 438.002 192.437 438.002C191.537 438.002 190.815 438.091 190.271 438.268C189.726 438.433 189.333 438.673 189.093 438.99C188.852 439.294 188.732 439.661 188.732 440.092V440.225C188.732 440.694 188.858 441.105 189.112 441.46C189.365 441.802 189.815 442.112 190.461 442.391C191.119 442.657 192.031 442.917 193.197 443.17C194.767 443.499 196.021 443.886 196.959 444.329C197.896 444.772 198.574 445.342 198.992 446.039C199.41 446.723 199.619 447.61 199.619 448.699V448.984C199.619 450.795 198.998 452.157 197.757 453.069C196.515 453.981 194.653 454.437 192.171 454.437ZM214.088 454L214.24 449.592L214.107 449.022V443.17L214.126 442.239C214.126 440.808 213.758 439.756 213.024 439.085C212.302 438.414 211.136 438.078 209.528 438.078C208.223 438.078 207.013 438.262 205.899 438.629C204.784 438.996 203.777 439.421 202.878 439.902L203.22 436.786C203.726 436.495 204.322 436.21 205.006 435.931C205.69 435.652 206.462 435.424 207.324 435.247C208.185 435.07 209.129 434.981 210.155 434.981C211.561 434.981 212.751 435.152 213.727 435.494C214.702 435.823 215.487 436.305 216.083 436.938C216.678 437.571 217.109 438.331 217.375 439.218C217.653 440.105 217.793 441.093 217.793 442.182V454H214.088ZM207.799 454.418C205.962 454.418 204.556 453.968 203.581 453.069C202.605 452.157 202.118 450.865 202.118 449.193V448.623C202.118 446.85 202.662 445.539 203.752 444.69C204.854 443.829 206.583 443.233 208.939 442.904L214.525 442.106L214.734 444.804L209.376 445.564C208.096 445.741 207.184 446.052 206.64 446.495C206.095 446.926 205.823 447.565 205.823 448.414V448.68C205.823 449.529 206.082 450.181 206.602 450.637C207.134 451.093 207.938 451.321 209.015 451.321C210.003 451.321 210.851 451.156 211.561 450.827C212.27 450.498 212.846 450.061 213.29 449.516C213.733 448.959 214.037 448.344 214.202 447.673L214.715 450.162H214.031C213.828 450.922 213.492 451.625 213.024 452.271C212.555 452.917 211.896 453.436 211.048 453.829C210.212 454.222 209.129 454.418 207.799 454.418ZM234.512 454V442.524C234.512 441.625 234.385 440.846 234.132 440.187C233.891 439.528 233.486 439.015 232.916 438.648C232.358 438.281 231.592 438.097 230.617 438.097C229.717 438.097 228.938 438.262 228.28 438.591C227.621 438.92 227.083 439.364 226.665 439.921C226.259 440.478 225.968 441.112 225.791 441.821L225.183 439.237H225.981C226.196 438.452 226.551 437.742 227.045 437.109C227.539 436.463 228.197 435.95 229.021 435.57C229.844 435.19 230.864 435 232.08 435C233.536 435 234.714 435.279 235.614 435.836C236.513 436.381 237.172 437.179 237.59 438.23C238.02 439.281 238.236 440.573 238.236 442.106V454H234.512ZM222.2 454V435.418H225.924L225.772 439.769L225.924 439.997V454H222.2ZM255.33 454V430.383H259.149V454H255.33ZM248.186 432.91V429.718H266.274V432.91H248.186ZM271.786 435.418V446.894C271.786 447.781 271.906 448.56 272.147 449.231C272.4 449.89 272.812 450.403 273.382 450.77C273.952 451.137 274.718 451.321 275.681 451.321C276.593 451.321 277.372 451.156 278.018 450.827C278.676 450.498 279.215 450.054 279.633 449.497C280.051 448.927 280.342 448.294 280.507 447.597L281.115 450.181H280.317C280.101 450.954 279.747 451.663 279.253 452.309C278.759 452.955 278.1 453.468 277.277 453.848C276.453 454.228 275.434 454.418 274.218 454.418C272.774 454.418 271.596 454.146 270.684 453.601C269.784 453.044 269.119 452.239 268.689 451.188C268.271 450.124 268.062 448.832 268.062 447.312V435.418H271.786ZM284.098 435.418V454H280.374L280.526 449.649L280.374 449.421V435.418H284.098ZM301.123 454V442.524C301.123 441.625 300.996 440.846 300.743 440.187C300.502 439.528 300.097 439.015 299.527 438.648C298.97 438.281 298.203 438.097 297.228 438.097C296.329 438.097 295.55 438.262 294.891 438.591C294.232 438.92 293.694 439.364 293.276 439.921C292.871 440.478 292.579 441.112 292.402 441.821L291.794 439.237H292.592C292.807 438.452 293.162 437.742 293.656 437.109C294.15 436.463 294.809 435.95 295.632 435.57C296.455 435.19 297.475 435 298.691 435C300.148 435 301.326 435.279 302.225 435.836C303.124 436.381 303.783 437.179 304.201 438.23C304.632 439.281 304.847 440.573 304.847 442.106V454H301.123ZM288.811 454V435.418H292.535L292.383 439.769L292.535 439.997V454H288.811ZM320.258 454L320.41 449.592L320.277 449.022V443.17L320.296 442.239C320.296 440.808 319.928 439.756 319.194 439.085C318.472 438.414 317.306 438.078 315.698 438.078C314.393 438.078 313.183 438.262 312.069 438.629C310.954 438.996 309.947 439.421 309.048 439.902L309.39 436.786C309.896 436.495 310.492 436.21 311.176 435.931C311.86 435.652 312.632 435.424 313.494 435.247C314.355 435.07 315.299 434.981 316.325 434.981C317.731 434.981 318.921 435.152 319.897 435.494C320.872 435.823 321.657 436.305 322.253 436.938C322.848 437.571 323.279 438.331 323.545 439.218C323.823 440.105 323.963 441.093 323.963 442.182V454H320.258ZM313.969 454.418C312.132 454.418 310.726 453.968 309.751 453.069C308.775 452.157 308.288 450.865 308.288 449.193V448.623C308.288 446.85 308.832 445.539 309.922 444.69C311.024 443.829 312.753 443.233 315.109 442.904L320.695 442.106L320.904 444.804L315.546 445.564C314.266 445.741 313.354 446.052 312.81 446.495C312.265 446.926 311.993 447.565 311.993 448.414V448.68C311.993 449.529 312.252 450.181 312.772 450.637C313.304 451.093 314.108 451.321 315.185 451.321C316.173 451.321 317.021 451.156 317.731 450.827C318.44 450.498 319.016 450.061 319.46 449.516C319.903 448.959 320.207 448.344 320.372 447.673L320.885 450.162H320.201C319.998 450.922 319.662 451.625 319.194 452.271C318.725 452.917 318.066 453.436 317.218 453.829C316.382 454.222 315.299 454.418 313.969 454.418ZM334.337 454.437C332.842 454.437 331.531 454.285 330.404 453.981C329.276 453.664 328.333 453.322 327.573 452.955L327.231 449.554C328.168 450.023 329.2 450.434 330.328 450.789C331.455 451.131 332.722 451.302 334.128 451.302C335.483 451.302 336.484 451.106 337.13 450.713C337.788 450.308 338.118 449.712 338.118 448.927V448.775C338.118 448.268 337.985 447.85 337.719 447.521C337.453 447.179 336.978 446.875 336.294 446.609C335.622 446.343 334.666 446.071 333.425 445.792C331.867 445.437 330.638 445.019 329.739 444.538C328.839 444.057 328.193 443.468 327.801 442.771C327.421 442.062 327.231 441.213 327.231 440.225V440.054C327.231 438.382 327.813 437.115 328.979 436.254C330.144 435.393 331.892 434.962 334.223 434.962C335.692 434.962 336.971 435.12 338.061 435.437C339.15 435.754 340.049 436.115 340.759 436.52L341.101 439.617C340.252 439.161 339.283 438.781 338.194 438.477C337.117 438.16 335.92 438.002 334.603 438.002C333.703 438.002 332.981 438.091 332.437 438.268C331.892 438.433 331.499 438.673 331.259 438.99C331.018 439.294 330.898 439.661 330.898 440.092V440.225C330.898 440.694 331.024 441.105 331.278 441.46C331.531 441.802 331.981 442.112 332.627 442.391C333.285 442.657 334.197 442.917 335.363 443.17C336.933 443.499 338.187 443.886 339.125 444.329C340.062 444.772 340.74 445.342 341.158 446.039C341.576 446.723 341.785 447.61 341.785 448.699V448.984C341.785 450.795 341.164 452.157 339.923 453.069C338.681 453.981 336.819 454.437 334.337 454.437ZM350.376 454L357.824 429.718H363.733L371.181 454H367.324L361.016 432.264H360.541L354.233 454H350.376ZM355.24 447.217V444.063H366.279V447.217H355.24ZM381.444 448.376C378.835 448.376 376.833 447.819 375.44 446.704C374.047 445.589 373.35 444 373.35 441.935V441.631C373.35 440.326 373.622 439.199 374.167 438.249C374.712 437.286 375.579 436.539 376.77 436.007C377.973 435.462 379.544 435.158 381.482 435.095L391.134 434.772V437.679L385.966 437.451V437.66C386.701 437.85 387.309 438.148 387.79 438.553C388.284 438.946 388.658 439.44 388.911 440.035C389.164 440.63 389.291 441.333 389.291 442.144V442.353C389.291 444.304 388.626 445.798 387.296 446.837C385.979 447.863 384.028 448.376 381.444 448.376ZM381.292 458.199H381.767C382.844 458.199 383.756 458.123 384.503 457.971C385.25 457.819 385.82 457.578 386.213 457.249C386.618 456.92 386.821 456.483 386.821 455.938V455.881C386.821 455.235 386.593 454.747 386.137 454.418C385.681 454.101 384.889 453.892 383.762 453.791L378.404 453.278L379.335 453.24C378.727 453.341 378.189 453.5 377.72 453.715C377.264 453.918 376.903 454.184 376.637 454.513C376.384 454.855 376.257 455.273 376.257 455.767V455.805C376.257 456.388 376.453 456.856 376.846 457.211C377.251 457.566 377.828 457.819 378.575 457.971C379.335 458.123 380.241 458.199 381.292 458.199ZM381.064 461.163C379.354 461.163 377.878 461.011 376.637 460.707C375.408 460.416 374.458 459.941 373.787 459.282C373.128 458.636 372.799 457.775 372.799 456.698V456.622C372.799 455.9 372.957 455.292 373.274 454.798C373.603 454.304 374.047 453.911 374.604 453.62C375.174 453.316 375.807 453.113 376.504 453.012V452.822C375.579 452.632 374.889 452.322 374.433 451.891C373.99 451.448 373.768 450.878 373.768 450.181V450.162C373.768 449.681 373.876 449.269 374.091 448.927C374.306 448.572 374.629 448.294 375.06 448.091C375.503 447.876 376.054 447.736 376.713 447.673V447.255L380.627 448.205L379.202 448.148C378.455 448.161 377.935 448.256 377.644 448.433C377.365 448.61 377.226 448.864 377.226 449.193V449.212C377.226 449.592 377.435 449.877 377.853 450.067C378.284 450.244 379.006 450.39 380.019 450.504L384.541 450.998C386.542 451.213 388.005 451.701 388.93 452.461C389.855 453.221 390.317 454.374 390.317 455.919V456.014C390.317 457.205 389.969 458.18 389.272 458.94C388.588 459.7 387.6 460.257 386.308 460.612C385.029 460.979 383.49 461.163 381.691 461.163H381.064ZM381.387 445.64C382.362 445.64 383.173 445.501 383.819 445.222C384.478 444.931 384.972 444.5 385.301 443.93C385.63 443.36 385.795 442.663 385.795 441.84V441.555C385.795 440.744 385.63 440.06 385.301 439.503C384.984 438.946 384.503 438.521 383.857 438.23C383.224 437.939 382.419 437.793 381.444 437.793H381.349C380.298 437.793 379.443 437.951 378.784 438.268C378.125 438.572 377.644 439.009 377.34 439.579C377.049 440.136 376.903 440.801 376.903 441.574V441.84C376.903 442.663 377.068 443.36 377.397 443.93C377.726 444.5 378.22 444.931 378.879 445.222C379.55 445.501 380.386 445.64 381.387 445.64ZM397.141 435.418V446.894C397.141 447.781 397.261 448.56 397.502 449.231C397.755 449.89 398.167 450.403 398.737 450.77C399.307 451.137 400.073 451.321 401.036 451.321C401.948 451.321 402.727 451.156 403.373 450.827C404.032 450.498 404.57 450.054 404.988 449.497C405.406 448.927 405.697 448.294 405.862 447.597L406.47 450.181H405.672C405.457 450.954 405.102 451.663 404.608 452.309C404.114 452.955 403.455 453.468 402.632 453.848C401.809 454.228 400.789 454.418 399.573 454.418C398.129 454.418 396.951 454.146 396.039 453.601C395.14 453.044 394.475 452.239 394.044 451.188C393.626 450.124 393.417 448.832 393.417 447.312V435.418H397.141ZM409.453 435.418V454H405.729L405.881 449.649L405.729 449.421V435.418H409.453ZM426.479 454V442.524C426.479 441.625 426.352 440.846 426.099 440.187C425.858 439.528 425.453 439.015 424.883 438.648C424.325 438.281 423.559 438.097 422.584 438.097C421.684 438.097 420.905 438.262 420.247 438.591C419.588 438.92 419.05 439.364 418.632 439.921C418.226 440.478 417.935 441.112 417.758 441.821L417.15 439.237H417.948C418.163 438.452 418.518 437.742 419.012 437.109C419.506 436.463 420.164 435.95 420.988 435.57C421.811 435.19 422.831 435 424.047 435C425.503 435 426.681 435.279 427.581 435.836C428.48 436.381 429.139 437.179 429.557 438.23C429.987 439.281 430.203 440.573 430.203 442.106V454H426.479ZM414.167 454V435.418H417.891L417.739 439.769L417.891 439.997V454H414.167ZM442.155 448.376C439.546 448.376 437.544 447.819 436.151 446.704C434.758 445.589 434.061 444 434.061 441.935V441.631C434.061 440.326 434.333 439.199 434.878 438.249C435.423 437.286 436.29 436.539 437.481 436.007C438.684 435.462 440.255 435.158 442.193 435.095L451.845 434.772V437.679L446.677 437.451V437.66C447.412 437.85 448.02 438.148 448.501 438.553C448.995 438.946 449.369 439.44 449.622 440.035C449.875 440.63 450.002 441.333 450.002 442.144V442.353C450.002 444.304 449.337 445.798 448.007 446.837C446.69 447.863 444.739 448.376 442.155 448.376ZM442.003 458.199H442.478C443.555 458.199 444.467 458.123 445.214 457.971C445.961 457.819 446.531 457.578 446.924 457.249C447.329 456.92 447.532 456.483 447.532 455.938V455.881C447.532 455.235 447.304 454.747 446.848 454.418C446.392 454.101 445.6 453.892 444.473 453.791L439.115 453.278L440.046 453.24C439.438 453.341 438.9 453.5 438.431 453.715C437.975 453.918 437.614 454.184 437.348 454.513C437.095 454.855 436.968 455.273 436.968 455.767V455.805C436.968 456.388 437.164 456.856 437.557 457.211C437.962 457.566 438.539 457.819 439.286 457.971C440.046 458.123 440.952 458.199 442.003 458.199ZM441.775 461.163C440.065 461.163 438.589 461.011 437.348 460.707C436.119 460.416 435.169 459.941 434.498 459.282C433.839 458.636 433.51 457.775 433.51 456.698V456.622C433.51 455.9 433.668 455.292 433.985 454.798C434.314 454.304 434.758 453.911 435.315 453.62C435.885 453.316 436.518 453.113 437.215 453.012V452.822C436.29 452.632 435.6 452.322 435.144 451.891C434.701 451.448 434.479 450.878 434.479 450.181V450.162C434.479 449.681 434.587 449.269 434.802 448.927C435.017 448.572 435.34 448.294 435.771 448.091C436.214 447.876 436.765 447.736 437.424 447.673V447.255L441.338 448.205L439.913 448.148C439.166 448.161 438.646 448.256 438.355 448.433C438.076 448.61 437.937 448.864 437.937 449.193V449.212C437.937 449.592 438.146 449.877 438.564 450.067C438.995 450.244 439.717 450.39 440.73 450.504L445.252 450.998C447.253 451.213 448.716 451.701 449.641 452.461C450.566 453.221 451.028 454.374 451.028 455.919V456.014C451.028 457.205 450.68 458.18 449.983 458.94C449.299 459.7 448.311 460.257 447.019 460.612C445.74 460.979 444.201 461.163 442.402 461.163H441.775ZM442.098 445.64C443.073 445.64 443.884 445.501 444.53 445.222C445.189 444.931 445.683 444.5 446.012 443.93C446.341 443.36 446.506 442.663 446.506 441.84V441.555C446.506 440.744 446.341 440.06 446.012 439.503C445.695 438.946 445.214 438.521 444.568 438.23C443.935 437.939 443.13 437.793 442.155 437.793H442.06C441.009 437.793 440.154 437.951 439.495 438.268C438.836 438.572 438.355 439.009 438.051 439.579C437.76 440.136 437.614 440.801 437.614 441.574V441.84C437.614 442.663 437.779 443.36 438.108 443.93C438.437 444.5 438.931 444.931 439.59 445.222C440.261 445.501 441.097 445.64 442.098 445.64ZM189.575 476.606L200.408 500.986H200.684L200.5 488.29V476.606H204.985V506H198.246L187.252 481.344H186.976L187.16 494.569V506H182.675V476.606H189.575ZM215.333 483.506V497.398C215.333 498.471 215.479 499.414 215.77 500.227C216.077 501.024 216.575 501.645 217.265 502.09C217.955 502.535 218.883 502.757 220.048 502.757C221.152 502.757 222.095 502.558 222.877 502.159C223.674 501.76 224.326 501.224 224.832 500.549C225.338 499.859 225.691 499.092 225.89 498.249L226.626 501.377H225.66C225.399 502.312 224.97 503.171 224.372 503.953C223.774 504.735 222.977 505.356 221.98 505.816C220.983 506.276 219.749 506.506 218.277 506.506C216.529 506.506 215.103 506.176 213.999 505.517C212.91 504.842 212.105 503.869 211.584 502.596C211.078 501.308 210.825 499.744 210.825 497.904V483.506H215.333ZM230.237 483.506V506H225.729L225.913 500.733L225.729 500.457V483.506H230.237ZM243.211 506.529C241.401 506.529 239.814 506.345 238.45 505.977C237.085 505.594 235.943 505.18 235.023 504.735L234.609 500.618C235.743 501.185 236.993 501.684 238.358 502.113C239.722 502.527 241.256 502.734 242.958 502.734C244.598 502.734 245.81 502.496 246.592 502.021C247.389 501.53 247.788 500.81 247.788 499.859V499.675C247.788 499.062 247.627 498.556 247.305 498.157C246.983 497.743 246.408 497.375 245.58 497.053C244.767 496.731 243.609 496.401 242.107 496.064C240.221 495.635 238.733 495.129 237.645 494.546C236.556 493.963 235.774 493.25 235.299 492.407C234.839 491.548 234.609 490.521 234.609 489.325V489.118C234.609 487.094 235.314 485.561 236.725 484.518C238.135 483.475 240.251 482.954 243.073 482.954C244.851 482.954 246.4 483.146 247.719 483.529C249.037 483.912 250.126 484.349 250.985 484.84L251.399 488.589C250.371 488.037 249.198 487.577 247.88 487.209C246.576 486.826 245.127 486.634 243.533 486.634C242.444 486.634 241.57 486.741 240.911 486.956C240.251 487.155 239.776 487.447 239.485 487.83C239.193 488.198 239.048 488.643 239.048 489.164V489.325C239.048 489.892 239.201 490.391 239.508 490.82C239.814 491.234 240.359 491.61 241.141 491.947C241.938 492.269 243.042 492.583 244.453 492.89C246.354 493.289 247.872 493.756 249.007 494.293C250.141 494.83 250.962 495.52 251.468 496.363C251.974 497.191 252.227 498.264 252.227 499.583V499.928C252.227 502.121 251.475 503.769 249.973 504.873C248.47 505.977 246.216 506.529 243.211 506.529ZM269.742 506L269.926 500.664L269.765 499.974V492.89L269.788 491.763C269.788 490.03 269.343 488.758 268.454 487.945C267.58 487.132 266.169 486.726 264.222 486.726C262.643 486.726 261.178 486.948 259.829 487.393C258.48 487.838 257.261 488.351 256.172 488.934L256.586 485.162C257.199 484.809 257.92 484.464 258.748 484.127C259.576 483.79 260.511 483.514 261.554 483.299C262.597 483.084 263.739 482.977 264.981 482.977C266.683 482.977 268.124 483.184 269.305 483.598C270.486 483.997 271.436 484.579 272.157 485.346C272.878 486.113 273.399 487.033 273.721 488.106C274.058 489.179 274.227 490.375 274.227 491.694V506H269.742ZM262.129 506.506C259.906 506.506 258.204 505.962 257.023 504.873C255.842 503.769 255.252 502.205 255.252 500.181V499.491C255.252 497.344 255.911 495.757 257.23 494.73C258.564 493.687 260.657 492.967 263.509 492.568L270.271 491.602L270.524 494.868L264.038 495.788C262.489 496.003 261.385 496.378 260.726 496.915C260.067 497.436 259.737 498.211 259.737 499.238V499.56C259.737 500.587 260.051 501.377 260.68 501.929C261.324 502.481 262.298 502.757 263.601 502.757C264.797 502.757 265.824 502.558 266.683 502.159C267.542 501.76 268.239 501.231 268.776 500.572C269.313 499.897 269.681 499.154 269.88 498.341L270.501 501.354H269.673C269.428 502.274 269.021 503.125 268.454 503.907C267.887 504.689 267.089 505.318 266.062 505.793C265.05 506.268 263.739 506.506 262.129 506.506ZM294.466 506V492.108C294.466 491.019 294.313 490.076 294.006 489.279C293.715 488.482 293.224 487.861 292.534 487.416C291.859 486.971 290.932 486.749 289.751 486.749C288.662 486.749 287.719 486.948 286.922 487.347C286.125 487.746 285.473 488.282 284.967 488.957C284.476 489.632 284.124 490.398 283.909 491.257L283.173 488.129H284.139C284.4 487.178 284.829 486.32 285.427 485.553C286.025 484.771 286.822 484.15 287.819 483.69C288.816 483.23 290.05 483 291.522 483C293.285 483 294.711 483.337 295.8 484.012C296.889 484.671 297.686 485.637 298.192 486.91C298.713 488.183 298.974 489.747 298.974 491.602V506H294.466ZM279.562 506V483.506H284.07L283.886 488.773L284.07 489.049V506H279.562ZM312.686 506.46C310.892 506.46 309.451 506.192 308.362 505.655C307.273 505.103 306.484 504.283 305.993 503.194C305.502 502.09 305.257 500.718 305.257 499.077V485.323H309.719V498.548C309.719 499.928 310.033 500.94 310.662 501.584C311.291 502.228 312.349 502.55 313.836 502.55C314.725 502.55 315.576 502.458 316.389 502.274C317.202 502.09 317.953 501.829 318.643 501.492L318.252 505.31C317.516 505.678 316.665 505.962 315.699 506.161C314.733 506.36 313.729 506.46 312.686 506.46ZM301.738 487.37V483.782H318.436L318.045 487.37H301.738ZM305.303 484.173L305.28 477.986L309.788 477.457L309.604 484.173H305.303ZM335.777 506L335.961 500.664L335.8 499.974V492.89L335.823 491.763C335.823 490.03 335.379 488.758 334.489 487.945C333.615 487.132 332.205 486.726 330.257 486.726C328.678 486.726 327.214 486.948 325.864 487.393C324.515 487.838 323.296 488.351 322.207 488.934L322.621 485.162C323.235 484.809 323.955 484.464 324.783 484.127C325.611 483.79 326.547 483.514 327.589 483.299C328.632 483.084 329.774 482.977 331.016 482.977C332.718 482.977 334.16 483.184 335.34 483.598C336.521 483.997 337.472 484.579 338.192 485.346C338.913 486.113 339.434 487.033 339.756 488.106C340.094 489.179 340.262 490.375 340.262 491.694V506H335.777ZM328.164 506.506C325.941 506.506 324.239 505.962 323.058 504.873C321.878 503.769 321.287 502.205 321.287 500.181V499.491C321.287 497.344 321.947 495.757 323.265 494.73C324.599 493.687 326.692 492.967 329.544 492.568L336.306 491.602L336.559 494.868L330.073 495.788C328.525 496.003 327.421 496.378 326.761 496.915C326.102 497.436 325.772 498.211 325.772 499.238V499.56C325.772 500.587 326.087 501.377 326.715 501.929C327.359 502.481 328.333 502.757 329.636 502.757C330.832 502.757 331.86 502.558 332.718 502.159C333.577 501.76 334.275 501.231 334.811 500.572C335.348 499.897 335.716 499.154 335.915 498.341L336.536 501.354H335.708C335.463 502.274 335.057 503.125 334.489 503.907C333.922 504.689 333.125 505.318 332.097 505.793C331.085 506.268 329.774 506.506 328.164 506.506ZM349.921 492.407L348.955 488.888H350.059C350.534 487.109 351.332 485.714 352.451 484.702C353.57 483.675 355.096 483.161 357.028 483.161C357.488 483.161 357.894 483.199 358.247 483.276C358.615 483.337 358.945 483.414 359.236 483.506L359.512 487.899C359.144 487.776 358.73 487.684 358.27 487.623C357.81 487.546 357.312 487.508 356.775 487.508C355.134 487.508 353.716 487.93 352.52 488.773C351.324 489.616 350.458 490.828 349.921 492.407ZM345.597 506V483.506H349.99L349.783 490.061L350.105 490.383V506H345.597ZM375.623 506L375.807 500.664L375.646 499.974V492.89L375.669 491.763C375.669 490.03 375.224 488.758 374.335 487.945C373.461 487.132 372.05 486.726 370.103 486.726C368.524 486.726 367.059 486.948 365.71 487.393C364.361 487.838 363.142 488.351 362.053 488.934L362.467 485.162C363.08 484.809 363.801 484.464 364.629 484.127C365.457 483.79 366.392 483.514 367.435 483.299C368.478 483.084 369.62 482.977 370.862 482.977C372.564 482.977 374.005 483.184 375.186 483.598C376.367 483.997 377.317 484.579 378.038 485.346C378.759 486.113 379.28 487.033 379.602 488.106C379.939 489.179 380.108 490.375 380.108 491.694V506H375.623ZM368.01 506.506C365.787 506.506 364.085 505.962 362.904 504.873C361.723 503.769 361.133 502.205 361.133 500.181V499.491C361.133 497.344 361.792 495.757 363.111 494.73C364.445 493.687 366.538 492.967 369.39 492.568L376.152 491.602L376.405 494.868L369.919 495.788C368.37 496.003 367.266 496.378 366.607 496.915C365.948 497.436 365.618 498.211 365.618 499.238V499.56C365.618 500.587 365.932 501.377 366.561 501.929C367.205 502.481 368.179 502.757 369.482 502.757C370.678 502.757 371.705 502.558 372.564 502.159C373.423 501.76 374.12 501.231 374.657 500.572C375.194 499.897 375.562 499.154 375.761 498.341L376.382 501.354H375.554C375.309 502.274 374.902 503.125 374.335 503.907C373.768 504.689 372.97 505.318 371.943 505.793C370.931 506.268 369.62 506.506 368.01 506.506Z" fill="black"/>
<defs>
<filter id="filter0_d_145_41" x="32.9988" y="25" width="496.502" height="246.007" filterUnits="userSpaceOnUse" color-interpolation-filters="sRGB">
<feFlood flood-opacity="0" result="BackgroundImageFix"/>
<feColorMatrix in="SourceAlpha" type="matrix" values="0 0 0 0 0 0 0 0 0 0 0 0 0 0 0 0 0 0 127 0" result="hardAlpha"/>
<feOffset dy="-9"/>
<feGaussianBlur stdDeviation="6"/>
<feComposite in2="hardAlpha" operator="out"/>
<feColorMatrix type="matrix" values="0 0 0 0 0.884679 0 0 0 0 0.865838 0 0 0 0 0.404249 0 0 0 0.35 0"/>
<feBlend mode="normal" in2="BackgroundImageFix" result="effect1_dropShadow_145_41"/>
<feBlend mode="normal" in="SourceGraphic" in2="effect1_dropShadow_145_41" result="shape"/>
</filter>
<linearGradient id="paint0_linear_145_41" x1="491" y1="236.5" x2="436.5" y2="135" gradientUnits="userSpaceOnUse">
<stop offset="0.0258688" stop-color="#D9D7A1" stop-opacity="0.5"/>
<stop offset="0.802531" stop-color="#FDFCE6"/>
</linearGradient>
<radialGradient id="paint1_radial_145_41" cx="0" cy="0" r="1" gradientUnits="userSpaceOnUse" gradientTransform="translate(271.5 434.5) rotate(-89.0567) scale(577.078 2348.61)">
<stop offset="0.31807" stop-color="#F6F5C0" stop-opacity="0.1"/>
<stop offset="0.493141" stop-color="#F3F1C0"/>
<stop offset="0.941262" stop-color="#E2DD67" stop-opacity="0"/>
</radialGradient>
<radialGradient id="paint2_radial_145_41" cx="0" cy="0" r="1" gradientUnits="userSpaceOnUse" gradientTransform="translate(280.681 62.371) rotate(90) scale(631.72 1040.1)">
<stop offset="0.254448" stop-color="#B7630F"/>
<stop offset="0.56615" stop-color="#EBC54D"/>
</radialGradient>
</defs>
</svg>
